<mxfile host="app.diagrams.net" modified="2024-03-07T03:53:11.154Z" agent="Mozilla/5.0 (Macintosh; Intel Mac OS X 10_15_7) AppleWebKit/605.1.15 (KHTML, like Gecko) Version/16.4 Safari/605.1.15" etag="6T6tbLw8zw-ty4H0-7Kf" version="24.0.0" type="github">
  <diagram name="第 1 页" id="viXPcgzQtF_HTTYb_Ynw">
    <mxGraphModel dx="783" dy="581" grid="1" gridSize="10" guides="1" tooltips="1" connect="1" arrows="1" fold="1" page="1" pageScale="1" pageWidth="827" pageHeight="1169" math="1" shadow="0">
      <root>
        <mxCell id="0" />
        <mxCell id="1" parent="0" />
        <mxCell id="Py8gDE9-c-yzgaqU1A0x-12" style="edgeStyle=orthogonalEdgeStyle;rounded=0;orthogonalLoop=1;jettySize=auto;html=1;entryX=0.25;entryY=0;entryDx=0;entryDy=0;exitX=0.25;exitY=1;exitDx=0;exitDy=0;" parent="1" source="Py8gDE9-c-yzgaqU1A0x-1" target="Py8gDE9-c-yzgaqU1A0x-4" edge="1">
          <mxGeometry relative="1" as="geometry" />
        </mxCell>
        <mxCell id="Py8gDE9-c-yzgaqU1A0x-14" style="edgeStyle=orthogonalEdgeStyle;rounded=0;orthogonalLoop=1;jettySize=auto;html=1;entryX=1;entryY=0.25;entryDx=0;entryDy=0;dashed=1;" parent="1" source="Py8gDE9-c-yzgaqU1A0x-1" target="Py8gDE9-c-yzgaqU1A0x-6" edge="1">
          <mxGeometry relative="1" as="geometry">
            <Array as="points">
              <mxPoint x="250" y="230" />
              <mxPoint x="250" y="280" />
            </Array>
          </mxGeometry>
        </mxCell>
        <mxCell id="Py8gDE9-c-yzgaqU1A0x-1" value="&lt;font style=&quot;font-size: 18px;&quot; face=&quot;Times New Roman&quot;&gt;目标Q网络&lt;/font&gt;" style="rounded=1;whiteSpace=wrap;html=1;" parent="1" vertex="1">
          <mxGeometry x="350" y="210" width="110" height="40" as="geometry" />
        </mxCell>
        <mxCell id="Py8gDE9-c-yzgaqU1A0x-18" style="edgeStyle=orthogonalEdgeStyle;rounded=0;orthogonalLoop=1;jettySize=auto;html=1;entryX=1;entryY=0.25;entryDx=0;entryDy=0;exitX=0;exitY=0.25;exitDx=0;exitDy=0;dashed=1;" parent="1" source="Py8gDE9-c-yzgaqU1A0x-3" target="Py8gDE9-c-yzgaqU1A0x-1" edge="1">
          <mxGeometry relative="1" as="geometry" />
        </mxCell>
        <mxCell id="Py8gDE9-c-yzgaqU1A0x-19" style="edgeStyle=orthogonalEdgeStyle;rounded=0;orthogonalLoop=1;jettySize=auto;html=1;exitX=0;exitY=0.75;exitDx=0;exitDy=0;entryX=0.75;entryY=0;entryDx=0;entryDy=0;dashed=1;" parent="1" source="Py8gDE9-c-yzgaqU1A0x-3" target="Py8gDE9-c-yzgaqU1A0x-4" edge="1">
          <mxGeometry relative="1" as="geometry">
            <Array as="points">
              <mxPoint x="490" y="240" />
              <mxPoint x="490" y="280" />
              <mxPoint x="433" y="280" />
            </Array>
          </mxGeometry>
        </mxCell>
        <mxCell id="j4-gx3Ufi2gw1g6tloIW-1" style="edgeStyle=orthogonalEdgeStyle;rounded=0;orthogonalLoop=1;jettySize=auto;html=1;" edge="1" parent="1" source="Py8gDE9-c-yzgaqU1A0x-3" target="Py8gDE9-c-yzgaqU1A0x-6">
          <mxGeometry relative="1" as="geometry">
            <Array as="points">
              <mxPoint x="635" y="190" />
              <mxPoint x="165" y="190" />
            </Array>
          </mxGeometry>
        </mxCell>
        <mxCell id="Py8gDE9-c-yzgaqU1A0x-3" value="&lt;font size=&quot;4&quot; face=&quot;Times New Roman&quot;&gt;经验重放池&lt;/font&gt;" style="rounded=1;whiteSpace=wrap;html=1;" parent="1" vertex="1">
          <mxGeometry x="580" y="210" width="110" height="40" as="geometry" />
        </mxCell>
        <mxCell id="Py8gDE9-c-yzgaqU1A0x-13" style="edgeStyle=orthogonalEdgeStyle;rounded=0;orthogonalLoop=1;jettySize=auto;html=1;entryX=1;entryY=0.75;entryDx=0;entryDy=0;dashed=1;exitX=0;exitY=0.25;exitDx=0;exitDy=0;" parent="1" source="Py8gDE9-c-yzgaqU1A0x-4" target="Py8gDE9-c-yzgaqU1A0x-6" edge="1">
          <mxGeometry relative="1" as="geometry">
            <Array as="points">
              <mxPoint x="250" y="330" />
              <mxPoint x="250" y="300" />
            </Array>
          </mxGeometry>
        </mxCell>
        <mxCell id="Py8gDE9-c-yzgaqU1A0x-20" style="edgeStyle=orthogonalEdgeStyle;rounded=0;orthogonalLoop=1;jettySize=auto;html=1;exitX=1;exitY=0.25;exitDx=0;exitDy=0;entryX=0;entryY=0.25;entryDx=0;entryDy=0;dashed=1;" parent="1" source="Py8gDE9-c-yzgaqU1A0x-4" target="Py8gDE9-c-yzgaqU1A0x-5" edge="1">
          <mxGeometry relative="1" as="geometry" />
        </mxCell>
        <mxCell id="Py8gDE9-c-yzgaqU1A0x-4" value="&lt;font style=&quot;font-size: 18px;&quot; face=&quot;Times New Roman&quot;&gt;在线Q网络&lt;/font&gt;" style="rounded=1;whiteSpace=wrap;html=1;" parent="1" vertex="1">
          <mxGeometry x="350" y="320" width="110" height="40" as="geometry" />
        </mxCell>
        <mxCell id="Py8gDE9-c-yzgaqU1A0x-21" style="edgeStyle=orthogonalEdgeStyle;rounded=0;orthogonalLoop=1;jettySize=auto;html=1;exitX=0;exitY=0.75;exitDx=0;exitDy=0;entryX=1;entryY=0.75;entryDx=0;entryDy=0;dashed=1;" parent="1" source="Py8gDE9-c-yzgaqU1A0x-5" target="Py8gDE9-c-yzgaqU1A0x-4" edge="1">
          <mxGeometry relative="1" as="geometry" />
        </mxCell>
        <mxCell id="Py8gDE9-c-yzgaqU1A0x-22" style="edgeStyle=orthogonalEdgeStyle;rounded=0;orthogonalLoop=1;jettySize=auto;html=1;entryX=0.5;entryY=1;entryDx=0;entryDy=0;dashed=1;" parent="1" source="Py8gDE9-c-yzgaqU1A0x-5" target="Py8gDE9-c-yzgaqU1A0x-3" edge="1">
          <mxGeometry relative="1" as="geometry" />
        </mxCell>
        <mxCell id="Py8gDE9-c-yzgaqU1A0x-5" value="&lt;font size=&quot;4&quot; face=&quot;Times New Roman&quot;&gt;环境&lt;/font&gt;" style="rounded=1;whiteSpace=wrap;html=1;" parent="1" vertex="1">
          <mxGeometry x="580" y="320" width="110" height="40" as="geometry" />
        </mxCell>
        <mxCell id="Py8gDE9-c-yzgaqU1A0x-15" style="edgeStyle=orthogonalEdgeStyle;rounded=0;orthogonalLoop=1;jettySize=auto;html=1;entryX=0;entryY=0.75;entryDx=0;entryDy=0;dashed=1;exitX=0.5;exitY=1;exitDx=0;exitDy=0;" parent="1" source="Py8gDE9-c-yzgaqU1A0x-6" target="Py8gDE9-c-yzgaqU1A0x-4" edge="1">
          <mxGeometry relative="1" as="geometry">
            <Array as="points">
              <mxPoint x="165" y="350" />
            </Array>
            <mxPoint x="230" y="310" as="sourcePoint" />
          </mxGeometry>
        </mxCell>
        <mxCell id="Py8gDE9-c-yzgaqU1A0x-6" value="&lt;font size=&quot;4&quot; face=&quot;Times New Roman&quot;&gt;损失函数&lt;/font&gt;" style="rounded=1;whiteSpace=wrap;html=1;" parent="1" vertex="1">
          <mxGeometry x="110" y="270" width="110" height="40" as="geometry" />
        </mxCell>
        <mxCell id="Py8gDE9-c-yzgaqU1A0x-24" value="&lt;font color=&quot;#ff0000&quot; style=&quot;font-size: 19px;&quot;&gt;$$r$$&lt;/font&gt;" style="text;html=1;align=center;verticalAlign=middle;resizable=0;points=[];autosize=1;strokeColor=none;fillColor=none;" parent="1" vertex="1">
          <mxGeometry x="620" y="170" width="70" height="40" as="geometry" />
        </mxCell>
        <mxCell id="Py8gDE9-c-yzgaqU1A0x-25" value="&lt;font style=&quot;font-size: 13px;&quot; color=&quot;#ff0000&quot;&gt;$$\arg\max_aQ(\theta\mid s,a)$$&lt;/font&gt;" style="text;html=1;align=center;verticalAlign=middle;resizable=0;points=[];autosize=1;strokeColor=none;fillColor=none;" parent="1" vertex="1">
          <mxGeometry x="415" y="300" width="210" height="30" as="geometry" />
        </mxCell>
        <mxCell id="Py8gDE9-c-yzgaqU1A0x-26" value="&lt;font style=&quot;font-size: 13px;&quot; color=&quot;#ff0000&quot;&gt;$$\max_{a^{\prime}}\color{red}{Q(\theta\mid s^{\prime},a^{\prime})}$$&lt;/font&gt;" style="text;html=1;align=center;verticalAlign=middle;resizable=0;points=[];autosize=1;strokeColor=none;fillColor=none;" parent="1" vertex="1">
          <mxGeometry x="90" y="200" width="420" height="30" as="geometry" />
        </mxCell>
        <mxCell id="Py8gDE9-c-yzgaqU1A0x-28" value="&lt;font style=&quot;font-size: 13px;&quot; color=&quot;#ff0000&quot;&gt;$$Q(\theta\mid s,a)$$&lt;/font&gt;" style="text;html=1;align=center;verticalAlign=middle;resizable=0;points=[];autosize=1;strokeColor=none;fillColor=none;" parent="1" vertex="1">
          <mxGeometry x="225" y="300" width="150" height="30" as="geometry" />
        </mxCell>
        <mxCell id="Py8gDE9-c-yzgaqU1A0x-29" value="$$\color{red}{\nabla_\theta L(\theta)}$$" style="text;html=1;align=center;verticalAlign=middle;resizable=0;points=[];autosize=1;strokeColor=none;fillColor=none;" parent="1" vertex="1">
          <mxGeometry x="175" y="350" width="230" height="30" as="geometry" />
        </mxCell>
        <mxCell id="Py8gDE9-c-yzgaqU1A0x-33" value="&lt;font style=&quot;font-size: 13px;&quot; color=&quot;#ff0000&quot;&gt;$$(s,a,r,s^{\prime})$$&lt;/font&gt;" style="text;html=1;align=center;verticalAlign=middle;resizable=0;points=[];autosize=1;strokeColor=none;fillColor=none;" parent="1" vertex="1">
          <mxGeometry x="595" y="270" width="150" height="30" as="geometry" />
        </mxCell>
        <mxCell id="Py8gDE9-c-yzgaqU1A0x-34" value="&lt;font style=&quot;font-size: 18px;&quot; color=&quot;#ff0000&quot;&gt;$$s$$&lt;/font&gt;" style="text;html=1;align=center;verticalAlign=middle;resizable=0;points=[];autosize=1;strokeColor=none;fillColor=none;" parent="1" vertex="1">
          <mxGeometry x="485" y="350" width="70" height="30" as="geometry" />
        </mxCell>
        <mxCell id="Py8gDE9-c-yzgaqU1A0x-36" value="&lt;font style=&quot;font-size: 17px;&quot; color=&quot;#ff0000&quot;&gt;$$s^{\prime}$$&lt;/font&gt;" style="text;html=1;align=center;verticalAlign=middle;resizable=0;points=[];autosize=1;strokeColor=none;fillColor=none;" parent="1" vertex="1">
          <mxGeometry x="455" y="190" width="140" height="30" as="geometry" />
        </mxCell>
      </root>
    </mxGraphModel>
  </diagram>
</mxfile>
